<svg xmlns="http://www.w3.org/2000/svg" viewBox="0 0 2000 1500"><rect width="2000" height="1500" fill="#DBF3F3"/><defs><rect id="s" width="1" height="1" stroke="#DBF3F3" stroke-width=".2"/><pattern id="a" width="3" height="3" patternTransform="scale(7.7) translate(-870.13 -652.6)" patternUnits="userSpaceOnUse"><use y="2" fill="#d9f1f1" href="#s"/><use x="1" y="2" fill="#d9f1f1" href="#s"/><use x="2" y="2" fill="#d7eeee" href="#s"/><use fill="#d7eeee" href="#s"/><use x="2" fill="#d4ecec" href="#s"/><use x="1" y="1" fill="#d4ecec" href="#s"/></pattern><pattern id="b" width="7" height="11" patternTransform="scale(7.7) translate(-870.13 -652.6)" patternUnits="userSpaceOnUse"><g fill="#d2e9e9"><use href="#s"/><use y="5" href="#s"/><use x="1" y="10" href="#s"/><use x="2" y="1" href="#s"/><use x="2" y="4" href="#s"/><use x="3" y="8" href="#s"/><use x="4" y="3" href="#s"/><use x="4" y="7" href="#s"/><use x="5" y="2" href="#s"/><use x="5" y="6" href="#s"/><use x="6" y="9" href="#s"/></g></pattern><pattern id="h" width="5" height="13" patternTransform="scale(7.7) translate(-870.13 -652.6)" patternUnits="userSpaceOnUse"><g fill="#d2e9e9"><use y="5" href="#s"/><use y="8" href="#s"/><use x="1" y="1" href="#s"/><use x="1" y="9" href="#s"/><use x="1" y="12" href="#s"/><use x="2" href="#s"/><use x="2" y="4" href="#s"/><use x="3" y="2" href="#s"/><use x="3" y="6" href="#s"/><use x="3" y="11" href="#s"/><use x="4" y="3" href="#s"/><use x="4" y="7" href="#s"/><use x="4" y="10" href="#s"/></g></pattern><pattern id="c" width="17" height="13" patternTransform="scale(7.7) translate(-870.13 -652.6)" patternUnits="userSpaceOnUse"><g fill="#d0e7e7"><use y="11" href="#s"/><use x="2" y="9" href="#s"/><use x="5" y="12" href="#s"/><use x="9" y="4" href="#s"/><use x="12" y="1" href="#s"/><use x="16" y="6" href="#s"/></g></pattern><pattern id="d" width="19" height="17" patternTransform="scale(7.7) translate(-870.13 -652.6)" patternUnits="userSpaceOnUse"><g fill="#DBF3F3"><use y="9" href="#s"/><use x="16" y="5" href="#s"/><use x="14" y="2" href="#s"/><use x="11" y="11" href="#s"/><use x="6" y="14" href="#s"/></g><g fill="#cde4e4"><use x="3" y="13" href="#s"/><use x="9" y="7" href="#s"/><use x="13" y="10" href="#s"/><use x="15" y="4" href="#s"/><use x="18" y="1" href="#s"/></g></pattern><pattern id="e" width="47" height="53" patternTransform="scale(7.7) translate(-870.13 -652.6)" patternUnits="userSpaceOnUse"><g fill="#91D8D7"><use x="2" y="5" href="#s"/><use x="16" y="38" href="#s"/><use x="46" y="42" href="#s"/><use x="29" y="20" href="#s"/></g></pattern><pattern id="f" width="59" height="71" patternTransform="scale(7.7) translate(-870.13 -652.6)" patternUnits="userSpaceOnUse"><g fill="#91D8D7"><use x="33" y="13" href="#s"/><use x="27" y="54" href="#s"/><use x="55" y="55" href="#s"/></g></pattern><pattern id="g" width="139" height="97" patternTransform="scale(7.7) translate(-870.13 -652.6)" patternUnits="userSpaceOnUse"><g fill="#91D8D7"><use x="11" y="8" href="#s"/><use x="51" y="13" href="#s"/><use x="17" y="73" href="#s"/><use x="99" y="57" href="#s"/></g></pattern></defs><rect width="100%" height="100%" fill="url(#a)"/><rect width="100%" height="100%" fill="url(#b)"/><rect width="100%" height="100%" fill="url(#h)"/><rect width="100%" height="100%" fill="url(#c)"/><rect width="100%" height="100%" fill="url(#d)"/><rect width="100%" height="100%" fill="url(#e)"/><rect width="100%" height="100%" fill="url(#f)"/><rect width="100%" height="100%" fill="url(#g)"/></svg>